<svg xmlns="http://www.w3.org/2000/svg" viewBox="0 0 1200 360" role="img" aria-labelledby="title desc">
  <title id="title">Application Inventory Service</title>
  <desc id="desc">A blue technical banner showing application inventory flowing from source platforms into reports, databases, and security scanners.</desc>
  <defs>
    <linearGradient id="bg" x1="0" y1="0" x2="1" y2="1">
      <stop offset="0" stop-color="#06142f"/>
      <stop offset="0.55" stop-color="#0b3b78"/>
      <stop offset="1" stop-color="#0f75bc"/>
    </linearGradient>
    <linearGradient id="card" x1="0" y1="0" x2="1" y2="1">
      <stop offset="0" stop-color="#ffffff" stop-opacity="0.22"/>
      <stop offset="1" stop-color="#ffffff" stop-opacity="0.08"/>
    </linearGradient>
    <filter id="shadow" x="-20%" y="-20%" width="140%" height="140%">
      <feDropShadow dx="0" dy="16" stdDeviation="18" flood-color="#00112e" flood-opacity="0.35"/>
    </filter>
  </defs>
  <rect width="1200" height="360" rx="32" fill="url(#bg)"/>
  <path d="M0 290 C180 220 270 330 425 265 C590 196 690 330 870 250 C1015 185 1100 230 1200 180 L1200 360 L0 360 Z" fill="#7dd3fc" opacity="0.14"/>
  <path d="M0 82 C180 32 340 128 520 80 C690 34 840 26 1200 90" fill="none" stroke="#93c5fd" stroke-width="2" opacity="0.28"/>
  <g filter="url(#shadow)">
    <rect x="70" y="70" width="250" height="210" rx="20" fill="url(#card)" stroke="#bfdbfe" stroke-opacity="0.35"/>
    <rect x="475" y="70" width="250" height="210" rx="20" fill="url(#card)" stroke="#bfdbfe" stroke-opacity="0.35"/>
    <rect x="880" y="70" width="250" height="210" rx="20" fill="url(#card)" stroke="#bfdbfe" stroke-opacity="0.35"/>
  </g>
  <g fill="none" stroke="#dbeafe" stroke-width="4" stroke-linecap="round" stroke-linejoin="round" opacity="0.9">
    <path d="M260 145 H475"/>
    <path d="M725 145 H940"/>
    <path d="M260 205 H475"/>
    <path d="M725 205 H940"/>
    <path d="M452 133 L475 145 L452 157"/>
    <path d="M452 193 L475 205 L452 217"/>
    <path d="M917 133 L940 145 L917 157"/>
    <path d="M917 193 L940 205 L917 217"/>
  </g>
  <g fill="#dbeafe">
    <circle cx="130" cy="130" r="17"/>
    <circle cx="130" cy="180" r="17"/>
    <circle cx="130" cy="230" r="17"/>
    <rect x="166" y="118" width="96" height="16" rx="8"/>
    <rect x="166" y="168" width="126" height="16" rx="8"/>
    <rect x="166" y="218" width="82" height="16" rx="8"/>
    <rect x="535" y="112" width="130" height="18" rx="9"/>
    <rect x="530" y="153" width="140" height="54" rx="12" fill="none" stroke="#dbeafe" stroke-width="5"/>
    <path d="M560 207 V236 M600 207 V236 M640 207 V236"/>
    <rect x="940" y="116" width="130" height="20" rx="10"/>
    <rect x="940" y="158" width="130" height="20" rx="10"/>
    <rect x="940" y="200" width="130" height="20" rx="10"/>
  </g>
  <text x="600" y="324" text-anchor="middle" fill="#eff6ff" font-family="Inter,Segoe UI,Arial,sans-serif" font-size="28" font-weight="700">Source platforms to scanner-ready inventory</text>
</svg>
